<svg width="163" height="91" viewBox="0 0 163 91" fill="none" xmlns="http://www.w3.org/2000/svg">
<path d="M29.718 40.536C28.6353 40.536 27.3593 40.2847 25.89 39.782C24.4207 39.2407 22.9707 38.564 21.54 37.752C20.148 36.94 18.988 36.0893 18.06 35.2C17.1707 34.3107 16.726 33.4987 16.726 32.764C16.726 31.7587 16.784 30.4827 16.9 28.936C17.0547 27.3507 17.132 25.688 17.132 23.948V13.914C17.132 10.1247 17.9053 7.43733 19.452 5.852C21.0373 4.228 23.222 3.416 26.006 3.416C27.166 3.416 28.3453 3.72533 29.544 4.344C30.7813 4.96266 31.922 5.736 32.966 6.664C34.0487 7.592 34.9187 8.55866 35.576 9.564C36.2333 10.5693 36.562 11.4587 36.562 12.232C36.562 13.1213 36.504 14.1267 36.388 15.248C36.272 16.3307 36.0787 17.336 35.808 18.264L30.066 16.93C30.2207 16.002 30.356 15.016 30.472 13.972C30.6267 12.928 30.704 11.8453 30.704 10.724C30.704 9.448 30.0273 8.81 28.674 8.81C26.9727 8.81 25.6193 9.29333 24.614 10.26C23.6087 11.188 23.106 12.7927 23.106 15.074V26.268C23.106 28.2013 23.048 29.748 22.932 30.908C22.8547 32.068 22.816 32.88 22.816 33.344C22.816 34.6973 23.512 35.374 24.904 35.374C26.7213 35.374 28.21 34.9487 29.37 34.098C30.53 33.2473 31.5353 31.894 32.386 30.038H33.082L37.896 32.822C37.084 35.2967 35.9627 37.2107 34.532 38.564C33.14 39.8787 31.5353 40.536 29.718 40.536ZM61.0362 40.71C60.1082 40.4007 59.2575 40.0913 58.4842 39.782C57.7109 39.434 56.9762 39.0667 56.2802 38.68C55.7389 39.2213 55.0815 39.666 54.3082 40.014C53.5735 40.3233 52.7229 40.478 51.7562 40.478C51.0989 40.478 50.1322 40.2653 48.8562 39.84C47.6189 39.4147 46.3429 38.8733 45.0282 38.216C43.7135 37.52 42.5922 36.766 41.6642 35.954C40.7749 35.1033 40.3302 34.272 40.3302 33.46C40.3302 32.4547 40.3302 31.5653 40.3302 30.792C40.3689 29.98 40.3882 29.4967 40.3882 29.342C40.3882 27.0607 40.9682 25.456 42.1282 24.528C43.3269 23.5613 44.9895 23.078 47.1162 23.078C48.1989 23.078 49.3589 23.1553 50.5962 23.31C51.8335 23.4647 52.8389 23.6387 53.6122 23.832C53.6509 22.7493 53.6702 21.7247 53.6702 20.758C53.7089 19.7527 53.7282 18.9987 53.7282 18.496C53.7282 18.0707 53.6122 17.7613 53.3802 17.568C53.1482 17.3747 52.7229 17.278 52.1042 17.278C50.5962 17.278 49.3202 17.394 48.2762 17.626C47.2322 17.858 46.2462 18.2447 45.3182 18.786H44.2162L40.4462 13.276L40.9102 12.348H50.5962C51.3695 12.348 52.2395 12.6573 53.2062 13.276C54.2115 13.856 55.1975 14.5907 56.1642 15.48C57.1309 16.3693 57.9235 17.278 58.5422 18.206C59.1609 19.134 59.4702 19.946 59.4702 20.642C59.4702 21.918 59.4315 23.426 59.3542 25.166C59.2769 26.906 59.1995 28.6847 59.1222 30.502C59.0449 32.2807 59.0062 33.9047 59.0062 35.374C59.0062 36.534 59.1995 37.346 59.5862 37.81C59.9729 38.2353 60.7075 38.6607 61.7902 39.086L61.0362 40.71ZM46.0722 33.46C46.0722 34.4267 46.2462 35.0453 46.5942 35.316C46.9422 35.548 47.3675 35.664 47.8702 35.664C49.4555 35.664 50.7702 35.258 51.8142 34.446C52.8969 33.5953 53.4382 32.2807 53.4382 30.502C53.4382 30.154 53.4382 29.7287 53.4382 29.226C53.4769 28.7233 53.4962 28.1627 53.4962 27.544C53.0709 27.428 52.5489 27.3507 51.9302 27.312C51.3115 27.2733 50.7509 27.254 50.2482 27.254C48.8562 27.254 47.8122 27.5633 47.1162 28.182C46.4202 28.8007 46.0722 29.8833 46.0722 31.43V33.46ZM75.0192 41.522C71.6938 40.4393 69.2965 39.5113 67.8272 38.738C66.3578 37.926 65.6232 37.346 65.6232 36.998C65.6232 36.5727 65.6812 35.838 65.7972 34.794C65.9518 33.75 66.0292 32.126 66.0292 29.922V22.73C66.0292 21.9567 66.0678 21.048 66.1452 20.004C66.2225 18.9213 66.3385 18.0127 66.4932 17.278H64.3472L61.3312 13.276L61.7372 12.348H67.1892C67.3825 12.348 67.7305 12.638 68.2332 13.218C68.7745 13.7593 69.3158 14.3587 69.8572 15.016C70.4758 14.0107 71.3265 13.276 72.4092 12.812C73.5305 12.348 74.7098 12.116 75.9472 12.116C76.5658 12.116 77.0298 12.1547 77.3392 12.232L80.2392 16.292L79.7752 16.988C77.0685 16.9493 75.0578 17.4713 73.7432 18.554C72.4285 19.6367 71.7712 21.628 71.7712 24.528V30.734C71.7712 32.6673 71.7132 34.1753 71.5972 35.258C71.5198 36.302 71.4812 36.998 71.4812 37.346C71.4812 37.578 71.5585 37.7907 71.7132 37.984C71.8678 38.1387 72.2352 38.332 72.8152 38.564C73.4338 38.796 74.4005 39.1827 75.7152 39.724L75.0192 41.522Z" fill="white"/>
<path d="M78.412 73.536C77.832 73.536 77.0393 73.3233 76.034 72.898C75.0287 72.434 74.004 71.854 72.96 71.158C71.916 70.4233 71.0267 69.6693 70.292 68.896C69.5573 68.084 69.19 67.3107 69.19 66.576C69.19 66.1507 69.2093 65.706 69.248 65.242C69.2867 64.778 69.3447 64.1787 69.422 63.444C69.4993 62.6707 69.5573 61.646 69.596 60.37C69.6347 59.094 69.654 57.4313 69.654 55.382C69.654 54.6087 69.654 53.7967 69.654 52.946C69.654 52.0953 69.6347 51.206 69.596 50.278H68.552L65.594 46.392L66 45.464C68.0493 45.232 69.3447 44.6133 69.886 43.608C70.4273 42.6027 70.698 41.0753 70.698 39.026L71.684 38.678L75.222 41.346C75.222 42.042 75.222 42.7187 75.222 43.376C75.222 44.0333 75.222 44.6907 75.222 45.348H80.152L83.052 49.408L82.646 50.278H75.28C75.28 51.67 75.28 53.004 75.28 54.28C75.28 55.556 75.28 56.774 75.28 57.934C75.28 60.1767 75.2413 61.8973 75.164 63.096C75.1253 64.2947 75.0673 65.184 74.99 65.764C74.9127 66.344 74.874 66.8853 74.874 67.388C74.874 68.1613 75.28 68.548 76.092 68.548C76.788 68.548 77.542 68.374 78.354 68.026C79.166 67.6393 79.92 67.1753 80.616 66.634H81.428L84.154 71.158C83.6127 71.8153 82.762 72.376 81.602 72.84C80.442 73.304 79.3787 73.536 78.412 73.536ZM97.6431 73.71C96.7151 73.71 95.5937 73.478 94.2791 73.014C92.9644 72.55 91.6884 71.9313 90.4511 71.158C89.2137 70.3847 88.1697 69.4953 87.3191 68.49C86.5071 67.4847 86.1011 66.46 86.1011 65.416C86.1011 64.952 86.1591 63.5987 86.2751 61.356C86.4297 59.1133 86.5071 56.31 86.5071 52.946C86.5071 50.2393 87.2997 48.248 88.8851 46.972C90.4704 45.696 92.8484 45.058 96.0191 45.058C96.9471 45.058 97.9717 45.348 99.0931 45.928C100.253 46.508 101.355 47.262 102.399 48.19C103.443 49.118 104.294 50.104 104.951 51.148C105.647 52.1533 105.995 53.1007 105.995 53.99C105.995 55.4593 105.956 57.0447 105.879 58.746C105.84 60.4473 105.821 62.632 105.821 65.3C105.821 67.7747 105.144 69.8047 103.791 71.39C102.438 72.9367 100.388 73.71 97.6431 73.71ZM93.9311 68.78C96.0577 68.78 97.6044 68.3353 98.5711 67.446C99.5764 66.5567 100.079 65.242 100.079 63.502C100.079 62.2647 100.098 60.8727 100.137 59.326C100.176 57.7407 100.214 56.2907 100.253 54.976C100.292 53.6227 100.311 52.6753 100.311 52.134C100.311 51.4767 100.195 50.9933 99.9631 50.684C99.7311 50.336 99.2671 50.162 98.5711 50.162C96.4831 50.162 94.8784 50.5293 93.7571 51.264C92.6744 51.96 92.1331 53.294 92.1331 55.266C92.1331 58.978 92.0944 61.7813 92.0171 63.676C91.9397 65.532 91.9011 66.7887 91.9011 67.446C91.9011 68.3353 92.5777 68.78 93.9311 68.78ZM118.697 74.116C116.222 73.188 114.308 72.3567 112.955 71.622C111.64 70.8487 110.983 70.1527 110.983 69.534C110.983 68.9927 111.041 68.1613 111.157 67.04C111.311 65.88 111.389 64.7587 111.389 63.676V48.074C111.389 45.754 111.466 43.6273 111.621 41.694C111.814 39.722 112.046 38.1367 112.317 36.938H109.823L106.633 33.168L107.039 32.24H114.579L118.001 36.648C117.73 38.156 117.517 39.8767 117.363 41.81C117.208 43.7047 117.131 45.638 117.131 47.61V64.314C117.131 65.706 117.073 66.9433 116.957 68.026C116.841 69.07 116.783 69.8627 116.783 70.404C116.783 70.7907 116.918 71.1 117.189 71.332C117.498 71.5253 118.233 71.9313 119.393 72.55L118.697 74.116ZM143.509 73.71C142.581 73.4007 141.73 73.0913 140.957 72.782C140.184 72.434 139.449 72.0667 138.753 71.68C138.212 72.2213 137.554 72.666 136.781 73.014C136.046 73.3233 135.196 73.478 134.229 73.478C133.572 73.478 132.605 73.2653 131.329 72.84C130.092 72.4147 128.816 71.8733 127.501 71.216C126.186 70.52 125.065 69.766 124.137 68.954C123.248 68.1033 122.803 67.272 122.803 66.46C122.803 65.4547 122.803 64.5653 122.803 63.792C122.842 62.98 122.861 62.4967 122.861 62.342C122.861 60.0607 123.441 58.456 124.601 57.528C125.8 56.5613 127.462 56.078 129.589 56.078C130.672 56.078 131.832 56.1553 133.069 56.31C134.306 56.4647 135.312 56.6387 136.085 56.832C136.124 55.7493 136.143 54.7247 136.143 53.758C136.182 52.7527 136.201 51.9987 136.201 51.496C136.201 51.0707 136.085 50.7613 135.853 50.568C135.621 50.3747 135.196 50.278 134.577 50.278C133.069 50.278 131.793 50.394 130.749 50.626C129.705 50.858 128.719 51.2447 127.791 51.786H126.689L122.919 46.276L123.383 45.348H133.069C133.842 45.348 134.712 45.6573 135.679 46.276C136.684 46.856 137.67 47.5907 138.637 48.48C139.604 49.3693 140.396 50.278 141.015 51.206C141.634 52.134 141.943 52.946 141.943 53.642C141.943 54.918 141.904 56.426 141.827 58.166C141.75 59.906 141.672 61.6847 141.595 63.502C141.518 65.2807 141.479 66.9047 141.479 68.374C141.479 69.534 141.672 70.346 142.059 70.81C142.446 71.2353 143.18 71.6607 144.263 72.086L143.509 73.71ZM128.545 66.46C128.545 67.4267 128.719 68.0453 129.067 68.316C129.415 68.548 129.84 68.664 130.343 68.664C131.928 68.664 133.243 68.258 134.287 67.446C135.37 66.5953 135.911 65.2807 135.911 63.502C135.911 63.154 135.911 62.7287 135.911 62.226C135.95 61.7233 135.969 61.1627 135.969 60.544C135.544 60.428 135.022 60.3507 134.403 60.312C133.784 60.2733 133.224 60.254 132.721 60.254C131.329 60.254 130.285 60.5633 129.589 61.182C128.893 61.8007 128.545 62.8833 128.545 64.43V66.46Z" fill="white"/>
<path d="M74 40.1429L75.0962 40H75.5L75.2 42.1429L74 42.1429V40.1429Z" fill="white"/>
<path d="M61.4169 64.4604C61.4169 64.4604 61.4169 64.4604 61.4168 64.4602C61.3637 64.2967 61.2439 64.1556 61.0741 64.0809C60.758 63.9415 60.3888 64.0848 60.2495 64.401L59.8463 65.316C60.2806 65.464 60.6782 65.5783 61.0568 65.6716L61.3942 64.9057C61.4589 64.7593 61.4627 64.6014 61.4169 64.4604ZM59.2287 63.4953C59.1755 63.3318 59.0555 63.1908 58.886 63.1161C58.5696 62.9768 58.2007 63.12 58.0611 63.4362L57.6276 64.42C58.0278 64.5986 58.4125 64.7644 58.7778 64.9131L59.2061 63.9409C59.2705 63.7944 59.2746 63.6366 59.2287 63.4953ZM57.1272 62.569C57.0741 62.4054 56.9543 62.2644 56.7845 62.1896C56.4684 62.0501 56.0991 62.1933 55.9598 62.5095L55.5442 63.4528C55.9292 63.6361 56.3075 63.8148 56.6764 63.9862L57.1047 63.0145C57.1693 62.8679 57.173 62.7099 57.1272 62.569ZM61.2867 68.4253C61.2868 68.4255 61.2868 68.4255 61.2868 68.4255C61.3244 68.5411 61.3209 68.6709 61.2675 68.7908C61.1529 69.0486 60.8509 69.1642 60.5934 69.0495L54.617 66.3869C54.4794 66.3256 54.3823 66.2109 54.3392 66.0782C54.3015 65.9623 54.3048 65.8326 54.3582 65.7128C54.473 65.455 54.7747 65.3393 55.0325 65.4539L61.0087 68.1166C61.1465 68.1778 61.2436 68.2925 61.2867 68.4253ZM57.4858 73.7767C57.1617 73.5608 56.8089 73.3447 56.4063 73.1239L56.406 73.124L56.0043 74.0364C55.9396 74.1828 55.9359 74.3407 55.9817 74.4817C56.0349 74.6454 56.1547 74.7865 56.3244 74.8612C56.6405 75.0006 57.0098 74.8573 57.1491 74.5411L57.4858 73.7767ZM59.9219 71.4879C59.9596 71.6038 59.956 71.7334 59.9026 71.8533C59.788 72.111 59.486 72.2268 59.2286 72.112L53.2523 69.4494C53.1145 69.3882 53.0174 69.2735 52.9743 69.1407C52.9366 69.0248 52.9401 68.8951 52.9936 68.7752C53.1082 68.5177 53.4101 68.4017 53.6676 68.5164L59.6438 71.1791C59.7814 71.2404 59.8787 71.355 59.9219 71.4879ZM55.3878 72.6069C55.0317 72.4373 54.6499 72.2649 54.2485 72.0897L53.8158 73.0715C53.7515 73.218 53.7475 73.376 53.7933 73.5171C53.8464 73.6805 53.9662 73.8216 54.136 73.8963C54.4521 74.0357 54.8214 73.8926 54.9606 73.5762L55.3878 72.6069ZM53.287 71.6793C52.9115 71.5222 52.5247 71.3628 52.13 71.2018L52.1301 71.2021L51.7146 72.145C51.65 72.2914 51.6462 72.4493 51.6921 72.5905C51.7452 72.7541 51.8651 72.8951 52.0348 72.9699C52.3509 73.1092 52.7201 72.9659 52.8594 72.6497L53.2868 71.6794L53.287 71.6793ZM63.6234 67.1459C63.6234 67.1459 63.6234 67.1459 63.6233 67.1456C63.5123 66.8038 63.2186 66.5402 62.8483 66.4785C61.7733 66.2994 60.7654 66.1303 59.4036 65.6367C58.0078 65.1308 56.2367 64.2838 54.4002 63.4041C54.1577 63.288 53.878 63.276 53.6263 63.3715C53.2982 63.4954 53.1153 63.5584 52.8612 63.561C52.8259 63.5615 52.7889 63.5606 52.7502 63.5591L50.3244 69.0689C50.3514 69.0956 50.3765 69.1223 50.3998 69.1481C50.5703 69.3381 50.6481 69.5166 50.7789 69.8437C50.8787 70.0925 51.0754 70.2898 51.3235 70.3905C53.2131 71.156 55.0348 71.8955 56.3502 72.5854C57.6335 73.2582 58.4367 73.8859 59.2919 74.556C59.6684 74.8508 60.2024 74.8325 60.5579 74.5126L62.6303 72.6482C62.7339 72.555 62.8166 72.4407 62.8727 72.3132L62.8729 72.3124L63.6165 70.6213C63.6729 70.4932 63.7014 70.3546 63.6998 70.2147L63.6714 67.4401C63.6702 67.3379 63.6537 67.239 63.6234 67.1459ZM48.7291 63.0123L48.7289 63.0124C48.7289 63.0124 48.7289 63.0124 48.729 63.0126C48.7567 63.098 48.7546 63.1937 48.7156 63.2824L47.4227 66.2212C47.3382 66.413 47.1142 66.5 46.9224 66.4155C46.8195 66.37 46.7466 66.2847 46.7142 66.1852C46.6865 66.0999 46.6889 66.004 46.728 65.9153L48.0207 62.9766C48.1053 62.7847 48.3293 62.6978 48.5211 62.7822C48.6241 62.8275 48.6968 62.9131 48.7291 63.0123ZM45.008 61.3732C45.0358 61.4587 45.0334 61.5544 44.9944 61.643L43.7015 64.5818C43.6171 64.7736 43.3932 64.8608 43.2015 64.7763C43.0983 64.7309 43.0254 64.6454 42.9931 64.5461C42.9653 64.4605 42.9678 64.3649 43.0069 64.2759L44.2998 61.3374C44.3842 61.1455 44.6081 61.0584 44.7998 61.1429C44.9029 61.188 44.9757 61.2739 45.008 61.3732ZM41.4311 59.8143C41.4311 59.8143 41.4311 59.8143 41.4312 59.8145C41.4589 59.8999 41.4565 59.9955 41.4176 60.0844L40.1246 63.023C40.0403 63.215 39.8163 63.3019 39.6244 63.2175C39.5214 63.172 39.4488 63.0866 39.4165 62.9871C39.3887 62.9016 39.3909 62.806 39.4299 62.7171L40.7229 59.7785C40.8073 59.5867 41.0312 59.4997 41.223 59.5842C41.3261 59.6294 41.3989 59.715 41.4311 59.8143ZM37.8282 58.2144C37.856 58.3001 37.8538 58.3955 37.8147 58.4845L36.5217 61.4231C36.4374 61.6149 36.2135 61.7021 36.0215 61.6177C35.9186 61.5724 35.8459 61.4865 35.8137 61.3875C35.7858 61.3017 35.788 61.2061 35.8272 61.1174L37.12 58.1786C37.2045 57.9869 37.4283 57.8997 37.6201 57.9841C37.7232 58.0295 37.796 58.1152 37.8282 58.2144ZM34.2516 56.6557L34.2514 56.6558C34.2792 56.7413 34.277 56.8369 34.2378 56.9256L32.9449 59.8645C32.8605 60.0563 32.6366 60.1432 32.4449 60.0589C32.3417 60.0135 32.269 59.9279 32.2367 59.8286C32.209 59.7431 32.2112 59.6475 32.2503 59.5585L33.5432 56.62C33.6276 56.4282 33.8515 56.3411 34.0433 56.4255C34.1463 56.4707 34.2193 56.5563 34.2516 56.6557ZM30.8167 55.1458C30.8446 55.2314 30.8421 55.3269 30.803 55.4159L29.5103 58.3544C29.4256 58.5463 29.2018 58.6335 29.01 58.5488C28.9069 58.5036 28.8341 58.4179 28.8019 58.3187C28.7741 58.2331 28.7765 58.1373 28.8156 58.0485L30.1083 55.1098C30.1929 54.9179 30.4169 54.831 30.6086 54.9155C30.7115 54.961 30.7844 55.0463 30.8167 55.1458ZM26.9313 53.1568C27.1152 53.7226 27.1421 54.3467 26.9753 54.964C26.5182 56.6564 24.7778 57.6569 23.0888 57.2004C22.0158 56.9104 21.2212 56.1019 20.9011 55.1169C20.7173 54.5511 20.6901 53.9273 20.8569 53.3097C21.314 51.6173 23.0547 50.6167 24.7437 51.0735C25.8164 51.3634 26.6113 52.1718 26.9313 53.1568ZM28.0924 52.7805C27.6492 51.4166 26.5487 50.2968 25.062 49.8949C22.721 49.2622 20.3114 50.649 19.6785 52.9911C19.4478 53.8458 19.4855 54.7098 19.74 55.4931C20.1832 56.857 21.2836 57.9768 22.7704 58.3787L22.7705 58.379C25.1112 59.0118 27.5211 57.6247 28.1537 55.2826C28.3847 54.4279 28.347 53.5641 28.0924 52.7805ZM28.6181 52.5702L28.6182 52.5705C28.7227 52.8921 28.7956 53.2296 28.8331 53.5795C29.1242 56.3038 27.1487 58.7429 24.4281 59.0332C22.0571 59.2863 19.8943 57.8249 19.185 55.6419C19.0804 55.3201 19.0072 54.9826 18.9699 54.6328C18.6789 51.9084 20.6544 49.4694 23.3749 49.1788C25.7459 48.9256 27.9088 50.3873 28.6181 52.5702ZM14.5473 47.0323L14.5471 47.0323C14.5856 47.1508 14.5823 47.2835 14.5283 47.4066L12.6268 51.7263C12.5097 51.9921 12.1993 52.1127 11.9333 51.9955C11.7906 51.9327 11.6897 51.814 11.645 51.6763C11.6065 51.5577 11.6097 51.4252 11.6639 51.302L13.5653 46.9826C13.6825 46.7166 13.9931 46.5961 14.2587 46.713C14.4015 46.776 14.5026 46.8948 14.5473 47.0323ZM52.0725 63.4692L52.0725 63.4689C51.8983 63.4371 51.7065 63.3984 51.4957 63.3554C51.4696 63.35 51.4434 63.3458 51.4173 63.3426L36.1534 56.6126C36.3534 56.0537 36.5276 55.5018 36.6555 54.9702C36.8522 54.1523 36.9583 53.3139 36.8528 52.5224C36.8166 52.2505 36.7574 51.9927 36.678 51.7485C36.0947 49.9532 34.4177 48.8906 32.7153 48.3834C32.0541 48.1863 31.3611 48.0628 30.7341 47.9499C29.4315 47.7159 28.4224 47.5162 27.6696 46.9662C27.3641 46.7435 27.072 46.4389 26.77 46.0444C26.3953 45.5548 26.0416 44.9765 25.632 44.3051C25.184 43.5702 24.6795 42.7412 24.0628 41.9355C22.4695 39.8542 20.0368 37.812 17.2005 37.4866C14.3787 37.1628 11.4229 38.5699 9.52036 40.29C7.79331 41.8514 6.87199 43.7227 6.09856 45.4776C6.00041 45.7005 5.90466 45.9215 5.80987 46.1398C5.6878 46.4099 5.56363 46.6846 5.44038 46.9645C5.00076 47.9622 4.57273 49.0239 4.29704 50.1699C4.0976 50.9987 3.97583 51.8767 3.98064 52.8214C3.98637 53.9408 4.17199 55.1687 4.55663 56.3525C5.05467 57.8853 5.88623 59.3442 7.09276 60.3986C9.24418 62.2785 12.3839 62.6958 14.9988 62.4659C16.0105 62.377 16.9653 62.1895 17.8132 62.0237C19.2571 61.7412 20.2966 61.5537 21.1643 61.7284C21.5909 61.8145 22.0149 62.0002 22.465 62.2709C22.9452 62.5597 23.4136 62.9182 23.9355 63.3191C24.4407 63.7069 24.9993 64.1376 25.5931 64.4945C27.3235 65.5348 29.572 66.0651 31.4563 64.7631C32.4673 64.0646 33.2866 62.8541 33.9936 61.5302L49.3611 68.3058L49.3612 68.3057C49.5218 68.4224 49.6684 68.5297 49.8001 68.6294L49.8002 68.6296L52.0725 63.4692Z" fill="white"/>
</svg>
